<svg xmlns="http://www.w3.org/2000/svg" viewBox="0 0 1027 1027" width="1027" height="1027"><g transform="translate(183,136)" fill="#AF1A1C">
	<path d="M 620.500 1.485 C 606.254 4.632, 593.036 11.099, 581.772 20.433 C 559.433 38.943, 547.596 69.757, 549.477 104.500 C 550.339 120.435, 552.554 142.093, 555.204 160.500 C 558.359 182.423, 558.160 204.030, 554.680 217.254 C 551.336 229.960, 547.075 237.790, 539.873 244.457 C 532.137 251.619, 525.111 254.381, 514.500 254.432 C 505.195 254.476, 499.711 252.444, 493.157 246.523 C 483.658 237.941, 481.153 225.162, 486.755 213.859 C 490.078 207.154, 489.883 207.100, 481.076 212.299 C 474.046 216.447, 462.412 228.116, 458.145 235.297 C 450.379 248.368, 446.989 260.319, 446.277 277.140 C 445.231 301.870, 450.429 321.023, 466.866 353 C 500.259 417.962, 511.663 446.297, 516.569 476.500 C 518.662 489.385, 518.037 507.304, 515.109 518.354 C 513.025 526.221, 506.942 539.806, 501.001 549.861 C 497.297 556.129, 497.123 556.207, 512 544.914 C 544.012 520.614, 586.789 475.632, 607.492 444.500 C 636.660 400.640, 655.094 345.935, 660.062 288.500 C 661.538 271.428, 660.748 239.811, 658.474 225 C 654.585 199.660, 649.843 184.914, 636.771 157.500 C 621.185 124.814, 612.705 101.476, 608.359 79.305 C 606.225 68.417, 605.964 46.798, 607.872 39 C 610.104 29.880, 615.440 19.840, 621.123 14.067 C 626.259 8.849, 638.269 2, 642.281 2 C 643.291 2, 643.840 1.550, 643.500 1 C 642.627 -0.412, 627.658 -0.097, 620.500 1.485 M 282.375 79.194 C 285.086 82.886, 288.807 91.191, 289.523 95.148 C 289.887 97.154, 289.676 101.242, 289.056 104.232 C 287.012 114.077, 281.914 120.895, 258.891 144.579 C 247.005 156.805, 235.223 169.904, 232.707 173.689 L 228.133 180.569 232.596 196.035 C 248.833 252.288, 264.035 317.185, 272.471 366.247 C 280.513 413.021, 284.087 448.610, 284.145 482.500 C 284.188 507.930, 283.068 521.246, 279.559 537 C 274.656 559.018, 266.831 571.944, 254.616 578.206 C 249.650 580.752, 238.320 581.714, 232.343 580.097 C 222.134 577.336, 213.195 567.767, 209.040 555.150 C 206.132 546.323, 204.661 530.529, 205.736 519.683 C 206.595 511.016, 206.578 510.905, 204.768 513.183 C 200.583 518.448, 190.965 539.871, 188.536 549.336 C 175.258 601.081, 195.834 663.360, 247.358 727.381 C 258.714 741.491, 272.612 755.733, 273.823 754.500 C 274.364 753.950, 278.273 747.425, 282.511 740 C 299.488 710.258, 316.460 687.468, 336.502 667.500 C 347.604 656.439, 354.251 650.790, 392.935 619.542 C 429.263 590.197, 449.143 564.186, 459.568 532.361 C 464.309 517.888, 466.104 507.109, 466.705 489.500 C 467.320 471.467, 465.571 457.049, 460.559 438.839 C 455.779 421.473, 449.717 407.726, 436.626 384.575 C 420.470 356.001, 417.816 350.983, 411.665 337.375 C 401.454 314.785, 393.547 288.737, 386.520 254.539 C 379.381 219.791, 386.409 189.799, 405.925 171.730 C 412.669 165.486, 420.333 161.572, 428.829 160.031 C 443.707 157.333, 462.399 165.042, 468.515 176.398 C 469.582 178.379, 470.762 180, 471.138 180 C 472.286 180, 475.790 171.748, 476.469 167.448 C 477.331 161.993, 474.769 150.209, 471.312 143.724 C 466.994 135.625, 456.768 125.930, 448.500 122.095 C 433.683 115.225, 432.735 114.600, 428.105 108.662 C 425.572 105.414, 421.691 100.449, 419.480 97.628 C 413.448 89.934, 409.918 88.563, 392.386 87.106 C 370.535 85.290, 291.306 78.139, 285.591 77.466 L 280.682 76.889 282.375 79.194 M 61.819 141.968 C 74.835 149.144, 92.475 164.283, 102.024 176.473 C 118.067 196.954, 127 223.252, 127 250 C 127 274.563, 119.600 296.516, 105.043 315.138 C 94.369 328.793, 81.814 336.180, 68.923 336.392 C 63.237 336.485, 61.678 336.088, 57.423 333.461 C 48.224 327.783, 43.146 313.006, 43.004 291.500 L 42.938 281.500 40.413 285.500 C 36.268 292.066, 27.447 310.813, 23.537 321.364 C 9.483 359.288, 0.040 413.445, 0.010 456.289 C -0.019 498.087, 8.937 529.660, 30.703 564.500 C 39.464 578.523, 55.997 601.241, 65.299 612.037 C 86.583 636.739, 131.790 669.744, 184 698.698 C 204.768 710.215, 203.758 709.732, 201.975 707.291 C 201.164 706.180, 197.575 701.796, 194 697.549 C 174.053 673.853, 160.718 646.687, 155.442 619 C 153.006 606.217, 152.968 578.551, 155.366 564.543 C 160.652 533.660, 169.142 511.274, 196.340 456.500 C 205.079 438.900, 214.138 419.775, 216.471 414 C 238.461 359.559, 234.699 308.468, 204.297 248.676 C 192.566 225.605, 179.416 207.242, 162.584 190.427 C 140.947 168.812, 115.896 153.536, 88.175 145.050 C 78.149 141.981, 63.735 138.987, 59.140 139.018 C 56.884 139.034, 57.275 139.463, 61.819 141.968" stroke="none" fill="#AF1A1C" fill-rule="evenodd"/>
</g></svg>