<svg xmlns="http://www.w3.org/2000/svg" width="1400" height="924" viewBox="0 0 1400 924" version="1.1">
	<path d="M 972.376 1.491 C 958.785 4.447, 942.990 14.183, 934.546 24.809 C 928.292 32.680, 924.564 40.025, 921.557 50.399 C 916.993 66.151, 917.156 84.209, 922.197 121 C 927.847 162.234, 922.172 185.396, 904.132 194.735 C 893.598 200.188, 882.742 199.103, 874.380 191.761 C 867.226 185.479, 864.898 174.547, 869 166.500 C 870.100 164.342, 871 162.419, 871 162.226 C 871 162.033, 868.723 163.114, 865.941 164.629 C 859.401 168.188, 849.390 178.855, 845.225 186.702 C 840.419 195.758, 837.999 206.393, 838.008 218.410 C 838.023 239.369, 841.534 250.410, 859.019 284.500 C 873.915 313.542, 882.585 333.354, 887.514 349.614 C 897.157 381.428, 895.904 400.310, 882.590 423.846 C 880.615 427.336, 879 430.405, 879 430.664 C 879 431.398, 884.619 427.309, 894.959 419.053 C 920.294 398.823, 952.551 363.302, 967.709 338.940 C 981.091 317.434, 993.127 286.310, 999.397 257 C 1004.118 234.935, 1006.040 205.984, 1004.078 186.500 C 1001.502 160.918, 997.259 145.889, 985.985 122.419 C 970.006 89.153, 961.979 62.716, 962.023 43.500 C 962.039 36.746, 964.463 25.745, 967.176 20.115 C 970.356 13.519, 978.486 5.730, 984.511 3.509 C 987.255 2.497, 989.928 1.294, 990.450 0.835 C 991.922 -0.459, 979.219 0.003, 972.376 1.491 M 710 60.279 C 710 60.500, 711.342 63.115, 712.982 66.090 C 717.109 73.578, 717.068 79.544, 712.828 88.028 C 710.379 92.929, 705.853 98.285, 692.977 111.524 C 683.803 120.955, 674.508 131.333, 672.320 134.586 L 668.343 140.500 672.641 155.500 C 685.704 201.087, 697.846 254.292, 704.476 295 C 711.357 337.246, 713.745 379.935, 710.572 404 C 706.234 436.915, 695.872 452, 677.602 452 C 668.489 452, 660.937 447.156, 656.310 438.343 C 651.975 430.085, 650.596 423.195, 650.656 410.089 C 650.717 396.753, 650.474 396.801, 643.473 411.500 C 636.830 425.449, 634.638 435.696, 634.700 452.500 C 634.734 461.663, 635.338 469.264, 636.448 474.500 C 643.707 508.744, 666.678 549.495, 696.307 580.686 L 703.230 587.974 711.239 574.237 C 732.425 537.901, 746.935 521.531, 785 491.022 C 808.155 472.464, 826.410 454.848, 833.211 444.500 C 853.920 412.992, 859.232 376.468, 848.483 339.500 C 844.733 326.602, 840.365 317.068, 828.948 296.859 C 809.403 262.265, 801.205 241.785, 793.376 208 C 789.925 193.109, 789.556 190.184, 789.592 178 C 789.628 166.083, 789.949 163.544, 792.330 156.343 C 798.660 137.206, 811.530 125.351, 827.202 124.221 C 838.319 123.420, 849.006 128.073, 854.605 136.152 L 857.373 140.146 859.145 136.823 C 861.638 132.147, 861.540 122.519, 858.929 115.541 C 855.430 106.189, 844.907 96.243, 834.931 92.858 C 829.436 90.994, 826.352 88.345, 820.070 80.092 C 816.825 75.829, 813.053 71.609, 811.687 70.714 C 809.863 69.519, 803.002 68.539, 785.852 67.023 C 740.687 63.030, 718.458 60.984, 714.250 60.434 C 711.913 60.128, 710 60.058, 710 60.279 M 537.405 109.253 C 538.453 109.939, 542.572 112.641, 546.559 115.258 C 566.210 128.156, 581.538 149.810, 587.168 172.623 C 590.319 185.396, 590.328 204.418, 587.186 215.395 C 579.831 241.093, 563.696 259.709, 547.069 261.678 C 533.033 263.341, 525.791 253.232, 524.135 229.667 L 523.421 219.500 516.801 233 C 500.783 265.665, 491.036 311.778, 491.009 355.026 C 490.984 394.547, 500.082 419.903, 528.256 458.831 C 544.442 481.196, 563.084 498.365, 592.738 518.221 C 611.487 530.776, 648 552.103, 648 550.501 C 648 550.127, 645.709 547.273, 642.909 544.160 C 630.036 529.849, 618.382 508.267, 613.258 489.249 C 610.878 480.419, 610.627 477.756, 610.590 461 C 610.559 446.957, 610.980 440.452, 612.335 434 C 616.927 412.134, 624.275 393.637, 644.728 352.453 C 651.843 338.127, 659.131 322.377, 660.923 317.453 C 669.507 293.870, 671.981 269.666, 668.115 247.097 C 662.774 215.915, 645.598 180.054, 624.243 155.500 C 605.615 134.080, 580.428 118.207, 554.524 111.561 C 542.882 108.574, 534.680 107.468, 537.405 109.253 M 0.500 791.500 L 0.500 924 62.750 924 L 125 924 125 897.500 L 125 871 90.453 871 L 55.907 871 56.203 765 L 56.500 659 28.500 659 L 0.500 659 0.500 791.500 M 187 659.362 C 187 659.971, 182.626 681.058, 170.998 736.500 C 164.885 765.650, 158.586 795.800, 157 803.500 C 155.414 811.200, 149.141 841.276, 143.058 870.335 C 136.976 899.394, 132 923.357, 132 923.585 C 132 923.813, 144.522 924, 159.827 924 L 187.654 924 188.916 914.250 C 189.610 908.888, 190.421 903.254, 190.718 901.731 L 191.258 898.962 213.331 899.231 L 235.404 899.500 237.320 911.750 L 239.237 924 268.618 924 C 291.459 924, 297.999 923.722, 297.996 922.750 C 297.992 921.311, 298.719 924.802, 267.044 774.138 C 253.820 711.239, 243 659.601, 243 659.388 C 243 659.175, 230.400 659, 215 659 C 199.600 659, 187 659.163, 187 659.362 M 311.500 791.500 L 311.500 924 337.250 924 L 363 924 363 861 C 363 826.350, 363.350 798, 363.778 798 C 364.206 798, 365.974 801.712, 367.706 806.250 C 369.439 810.788, 377.210 830.925, 384.977 851 C 392.743 871.075, 401.964 894.925, 405.467 904 C 408.970 913.075, 412.147 921.288, 412.525 922.250 C 413.154 923.846, 415.245 924, 436.357 924 L 459.500 924 459.500 791.500 L 459.500 659 433.500 659 L 407.500 659 407.850 722.116 C 408.121 771.076, 407.929 785.143, 406.993 784.831 C 406.329 784.610, 402.665 776.345, 398.850 766.464 C 395.035 756.584, 384.171 728.364, 374.707 703.753 L 357.500 659.006 334.500 659.003 L 311.500 659 311.500 791.500 M 498 791.501 L 498 924.127 543.750 923.757 C 583.424 923.436, 590.297 923.157, 595.500 921.655 C 606.066 918.605, 613.797 914.362, 620.480 907.944 C 628.258 900.475, 633.144 891.568, 636.772 878.239 L 639.424 868.500 639.781 799 C 640.217 714.175, 639.688 707.725, 630.756 689 C 624.029 674.898, 613.110 666.077, 596.500 661.328 C 591.318 659.846, 584.198 659.562, 544.250 659.243 L 498 658.874 498 791.501 M 668.500 791.500 L 668.500 924 693.750 924 L 719 924 719 849.800 C 719 807.131, 719.373 776.004, 719.878 776.550 C 720.361 777.072, 724.627 795.725, 729.357 818 C 734.088 840.275, 738.880 862.775, 740.008 868 C 741.136 873.225, 744.064 886.950, 746.515 898.500 C 748.966 910.050, 751.212 920.513, 751.505 921.750 C 752.034 923.983, 752.178 924, 770.519 924 C 780.684 924, 789 923.797, 789 923.550 C 789 923.175, 798.040 880.698, 807.420 837 C 808.660 831.225, 812.100 815.138, 815.065 801.250 C 818.030 787.362, 820.804 776, 821.228 776 C 821.653 776, 822 809.300, 822 850 L 822 924 847.250 924 L 872.500 924 872.500 791.488 L 872.500 658.976 836.545 659.238 L 800.590 659.500 799.353 665.500 C 798.672 668.800, 795.595 683.650, 792.515 698.500 C 785.497 732.329, 776.254 776.974, 774.088 787.500 C 773.183 791.900, 772.005 795.413, 771.471 795.306 C 770.937 795.199, 769.275 789.574, 767.777 782.806 C 766.279 776.038, 760.301 748.900, 754.493 722.500 C 748.686 696.100, 743.165 671.013, 742.226 666.750 L 740.518 659 704.509 659 L 668.500 659 668.500 791.500 M 940.520 660.234 C 940.283 660.930, 934.912 686.475, 928.584 717 C 922.256 747.525, 912.986 792.075, 907.984 816 C 888.977 906.916, 886 921.358, 886 922.660 C 886 923.747, 891.174 924, 913.455 924 L 940.909 924 941.479 920.750 C 941.792 918.962, 942.609 913.450, 943.294 908.500 L 944.540 899.500 966.620 899.231 L 988.701 898.963 990.417 909.731 C 991.361 915.654, 992.359 921.288, 992.634 922.250 C 993.096 923.866, 995.394 924, 1022.567 924 C 1038.755 924, 1052 923.834, 1052 923.630 C 1052 923.427, 1049.346 910.715, 1046.102 895.380 C 1042.858 880.046, 1034.913 842.300, 1028.446 811.500 C 1021.979 780.700, 1012.138 733.900, 1006.576 707.500 L 996.465 659.500 968.707 659.234 C 947.019 659.026, 940.855 659.245, 940.520 660.234 M 1065 791.482 L 1065 924 1091 924 L 1117 924 1117 860.800 C 1117 823.703, 1117.369 797.992, 1117.892 798.550 C 1118.383 799.072, 1123.538 811.875, 1129.347 827 C 1135.156 842.125, 1144.011 865.075, 1149.024 878 C 1154.037 890.925, 1160.023 906.450, 1162.326 912.500 L 1166.514 923.500 1189.757 923.768 L 1213 924.037 1213 791.518 L 1213 659 1187 659 L 1161 659 1161 722 C 1161 756.650, 1160.662 784.997, 1160.250 784.993 C 1159.838 784.989, 1148.640 756.752, 1135.366 722.243 L 1111.233 659.500 1088.116 659.232 L 1065 658.963 1065 791.482 M 1251.500 791.500 L 1251.500 924 1277.250 924 L 1303 924 1303 861 C 1303 826.350, 1303.366 798, 1303.813 798 C 1304.261 798, 1305.805 801.038, 1307.246 804.750 C 1310.123 812.166, 1324.510 849.377, 1342.044 894.750 L 1353.347 924 1376.423 924 L 1399.500 924 1399.500 791.500 L 1399.500 659 1373.500 659 L 1347.500 658.999 1347.786 722 C 1347.958 760.047, 1347.706 785, 1347.148 785 C 1346.640 785, 1344.838 781.513, 1343.143 777.250 C 1339.510 768.114, 1311.347 694.994, 1303.278 673.750 L 1297.676 659 1274.588 659 L 1251.500 659 1251.500 791.500 M 554 791.503 L 554 871.233 563.750 870.810 C 575.912 870.283, 579.325 868.699, 582.338 862.179 C 584.484 857.534, 584.500 857.030, 584.500 792 C 584.500 730.950, 584.376 726.178, 582.672 721.763 C 579.784 714.278, 576.588 712.609, 564.268 712.153 L 554 711.773 554 791.503 M 211.615 762.005 C 210.749 767.422, 199 848.054, 199 848.582 C 199 848.812, 205.320 849, 213.045 849 L 227.091 849 226.532 845.750 C 226.224 843.962, 223.936 828.325, 221.446 811 C 218.957 793.675, 216.271 775, 215.478 769.500 C 214.685 764, 214.028 759.163, 214.018 758.750 C 214.008 758.337, 213.608 758, 213.128 758 C 212.648 758, 211.967 759.802, 211.615 762.005 M 965.614 759.083 C 965.025 760.932, 953 844.997, 953 847.265 C 953 848.828, 954.368 849, 966.785 849 L 980.570 849 978.874 837.250 C 977.942 830.788, 975.051 810.650, 972.450 792.500 C 968.044 761.752, 966.761 755.480, 965.614 759.083" stroke="none" fill="black" fill-rule="evenodd"/>
</svg>